<?xml version="1.0" encoding="utf-8"?>
<!-- Generator: Adobe Illustrator 26.2.1, SVG Export Plug-In . SVG Version: 6.00 Build 0)  -->
<svg version="1.1" id="Layer_1" xmlns="http://www.w3.org/2000/svg" xmlns:xlink="http://www.w3.org/1999/xlink" x="0px" y="0px"
	 viewBox="0 0 44 44" style="enable-background:new 0 0 44 44;" xml:space="preserve">
<path d="M35.8,15.1c-0.2-0.4-0.7-0.7-1.2-0.7h-9.9L32.1,2c0.2-0.4,0.2-0.9,0-1.3C31.9,0.3,31.4,0,31,0H16.2c-0.6,0-1.1,0.4-1.2,0.9
	L8.1,21.5C8,21.9,8,22.4,8.3,22.7c0.2,0.3,0.6,0.5,1.1,0.5h10.4l-5.6,19.1c-0.2,0.6,0.1,1.3,0.7,1.5C15,44,15.2,44,15.4,44
	c0.4,0,0.8-0.2,1.1-0.5l19.3-27C36,16,36.1,15.5,35.8,15.1L35.8,15.1z"/>
</svg>
