<?xml version="1.0" encoding="UTF-8"?><svg id="a" xmlns="http://www.w3.org/2000/svg" viewBox="0 0 44 44"><path d="M22,0C16.17,0,10.57,2.32,6.44,6.44,2.32,10.57,0,16.17,0,22s2.32,11.43,6.44,15.56c4.13,4.13,9.72,6.44,15.56,6.44s11.43-2.32,15.56-6.44c4.13-4.13,6.44-9.72,6.44-15.56,0-3.86-1.02-7.66-2.95-11-1.93-3.34-4.71-6.12-8.05-8.05-3.34-1.93-7.14-2.95-11-2.95h0Zm0,41.07c-5.06,0-9.91-2.01-13.48-5.58-3.58-3.58-5.58-8.43-5.58-13.48s2.01-9.91,5.58-13.48c3.58-3.58,8.43-5.58,13.48-5.58s9.91,2.01,13.48,5.58c3.58,3.58,5.58,8.43,5.58,13.48,0,5.05-2.02,9.9-5.59,13.48s-8.42,5.59-13.48,5.59h0Zm-1.47-22.28V7.18c0-.52,.28-1.01,.73-1.27,.45-.26,1.01-.26,1.47,0,.45,.26,.73,.75,.73,1.27v11.6c0,.52-.28,1.01-.73,1.27-.45,.26-1.01,.26-1.47,0-.45-.26-.73-.75-.73-1.27Zm12.93,3.21h0c0,3.93-2.01,7.58-5.32,9.69-3.32,2.1-7.48,2.36-11.03,.69-3.55-1.68-6-5.05-6.49-8.95-.49-3.9,1.06-7.77,4.09-10.27,.3-.25,.69-.36,1.07-.33s.74,.23,.99,.53c.25,.3,.36,.69,.33,1.07-.04,.39-.23,.74-.53,.99-1.82,1.5-2.94,3.68-3.09,6.04-.15,2.35,.68,4.66,2.29,6.38,1.61,1.72,3.87,2.7,6.22,2.7s4.61-.98,6.22-2.7c1.61-1.72,2.44-4.03,2.29-6.38-.15-2.35-1.27-4.54-3.09-6.04-.3-.25-.49-.6-.53-.99-.04-.39,.08-.77,.33-1.07,.25-.3,.6-.49,.99-.53,.39-.04,.77,.08,1.07,.33,2.65,2.17,4.19,5.42,4.18,8.84h0Z"/></svg>